# xmcd CD database file
#
# Track frame offsets:
#	150
#	15240
#	24500
#	37104
#	50660
#	59518
#	68788
#	83093
#	97315
#	109696
#	121638
#	134877
#	149201
#	162446
#	176529
#
# Disc length: 2520 seconds
#
# Revision: 0
# Processed by: cddbd v1.5.2PL0 Copyright (c) Steve Scherf et al.
# Submitted via: CDex 1.51
#
DISCID=db09d60f
DTITLE=Jerome Kern - Осенний блюз
DYEAR=1900
DGENRE=Blues
TTITLE0=Smoke Gets In Your Eyes
TTITLE1=Gan I Forget You
TTITLE2=Ol' Man River
TTITLE3=Pick Yourself Up
TTITLE4=We Were So Young
TTITLE5=You Could't Be Cuter
TTITLE6=I Won't Dance
TTITLE7=Never Gonna Dance
TTITLE8=Don't Ever Leave Me
TTITLE9=Try To Forget
TTITLE10=And Love Was Born
TTITLE11=The Way You Look Tonight
TTITLE12=The Song Is You
TTITLE13=A Fine Romance
TTITLE14=She Didn't Say "Yes"
EXTD=
EXTT0=
EXTT1=
EXTT2=
EXTT3=
EXTT4=
EXTT5=
EXTT6=
EXTT7=
EXTT8=
EXTT9=
EXTT10=
EXTT11=
EXTT12=
EXTT13=
EXTT14=
PLAYORDER=
